# xmcd CD database file
#
# Track frame offsets:
#	150
#	10632
#	31422
#	51430
#	64075
#	78707
#	95565
#	108600
#	117122
#	130872
#	145820
#	159365
#
# Disc length: 2300 seconds
#
# Revision: 4
# Processed by: cddbd v1.5.2PL0 Copyright (c) Steve Scherf et al.
# Submitted via: CDex 1.51
#
DISCID=9e08fa0c
DTITLE=T Bone Burnett - The Criminal Under My Own Hat
DYEAR=1992
DGENRE=Rock
TTITLE0=Over You
TTITLE1=Tear This Building Down
TTITLE2=It's Not Too Late
TTITLE3=Humans From Earth
TTITLE4=Primitives
TTITLE5=Criminals
TTITLE6=Every Little Thing
TTITLE7=I Can Explain Everything
TTITLE8=Any Time At All
TTITLE9=I Can Explain Everything
TTITLE10=The Long Time Now
TTITLE11=Kill Switch
EXTD=YEAR: 1992
EXTT0=
EXTT1=
EXTT2=
EXTT3=
EXTT4=
EXTT5=
EXTT6=
EXTT7=
EXTT8=
EXTT9=
EXTT10=
EXTT11=
PLAYORDER=
